<?xml version="1.0" standalone="no"?>
<!DOCTYPE svg PUBLIC "-//W3C//DTD SVG 20010904//EN"
 "http://www.w3.org/TR/2001/REC-SVG-20010904/DTD/svg10.dtd">
<svg version="1.0" xmlns="http://www.w3.org/2000/svg"
 width="300.000000pt" height="38.000000pt" viewBox="0 0 300.000000 38.000000"
 preserveAspectRatio="xMidYMid meet">
<metadata>
Created by potrace 1.16, written by Peter Selinger 2001-2019
</metadata>
<g transform="translate(0.000000,38.000000) scale(0.100000,-0.100000)"
fill="#000000" stroke="none">
<path d="M1131 343 c-55 -29 -75 -64 -79 -142 -4 -75 7 -108 53 -151 23 -21
36 -25 90 -25 54 0 68 4 90 25 30 27 55 78 55 110 0 15 -7 20 -25 20 -20 0
-25 -5 -25 -24 0 -14 -12 -38 -26 -55 -21 -26 -33 -31 -69 -31 -36 0 -48 5
-69 31 -32 38 -40 68 -31 116 16 88 116 125 169 62 14 -17 26 -35 26 -40 0 -5
9 -9 20 -9 38 0 14 80 -32 109 -35 22 -110 24 -147 4z"/>
<path d="M1396 248 c-32 -29 -46 -78 -22 -78 13 0 13 -3 -4 -20 -30 -30 -27
-83 7 -110 22 -17 36 -20 68 -16 22 4 53 7 69 7 16 0 36 4 43 10 9 8 13 8 13
0 0 -6 11 -11 25 -11 24 0 25 2 25 76 0 88 9 110 50 119 20 4 30 13 30 25 0
17 -8 19 -65 18 l-65 -1 0 -98 c0 -81 -3 -99 -15 -99 -12 0 -15 16 -15 84 0
76 -2 86 -22 100 -33 24 -92 20 -122 -6z"/>
<path d="M1722 247 c-41 -43 -22 -100 36 -113 74 -16 105 -43 66 -58 -43 -17
-84 1 -84 36 0 13 -8 18 -26 18 -25 0 -26 -2 -20 -32 9 -43 34 -67 79 -75 74
-12 130 40 108 100 -6 15 -12 27 -13 27 -2 0 -28 9 -57 19 -60 20 -73 34 -42
50 26 14 50 4 62 -25 12 -34 49 -33 49 1 0 67 -110 103 -158 52z"/>
</g>
</svg>
